<svg class="supremo-icon" xmlns="http://www.w3.org/2000/svg" viewBox="0 0 655 448.3" role="img" aria-labelledby="supremo-icon-title" aria-label="Back to homepage button">
	
	<path d="M21.8,353.5c31.3,69.2,90.3,94.8,135,94.8c137.7,0,211.8-113,232.7-217.2c13.1,1.6,26.9,2.5,41.2,2.5
		c131.2,0,279.5-51.1,203.7-173.9c-20.3,34.3-159.7,85.7-240.7,79.8C385.7,77.5,354,0,286.7,0c-33.2,0-68.2,26.4-68.2,70.4
		c0,59.8,32.4,109.2,89.4,137.4c-7.9,71-57.4,157.8-114.7,157.8c-98,0-68.4-245.4,2.3-316.2c-7.7-11.1-31.7-21.3-52.8-21.3
		C80.8,28.1,0.1,115.8,0.1,237.2C0.1,237.2-2.2,300.6,21.8,353.5z" fill="#ff360d"></path>
</svg>